<svg width="18" height="18" viewBox="0 0 18 18" fill="none" xmlns="http://www.w3.org/2000/svg">
<path d="M7.34747 0C7.73415 0 8.12102 0 8.50769 0C8.55222 0.0110602 8.59635 0.0290329 8.64147 0.0323904C9.35723 0.0863087 10.0485 0.251618 10.7177 0.504619C14.0005 1.74494 16.1397 5.03849 15.825 8.60026C15.7231 9.75347 15.3982 10.8346 14.8195 11.8344C14.5866 12.2369 14.3106 12.6143 14.0408 13.0233C14.0767 13.0535 14.1293 13.0919 14.1746 13.1371C15.3099 14.2708 16.447 15.4028 17.5763 16.5424C17.7368 16.7044 17.8597 16.9039 18 17.086V17.4375C17.9003 17.7126 17.7123 17.8999 17.4374 18H17.0858C16.9035 17.8596 16.704 17.7367 16.542 17.5762C15.398 16.4425 14.2617 15.3009 13.1226 14.1619C13.0789 14.1183 13.0326 14.0772 12.9853 14.033C12.9162 14.0867 12.8567 14.1339 12.7961 14.1799C11.0045 15.547 8.98638 16.0852 6.75975 15.7684C5.06543 15.5275 3.59037 14.7945 2.38048 13.5811C0.491633 11.687 -0.275976 9.39086 0.0877429 6.7461C0.319866 5.05804 1.07026 3.59909 2.26728 2.38109C3.42731 1.20062 4.82123 0.447541 6.45025 0.139634C6.74748 0.0835437 7.04827 0.0462156 7.34747 0ZM1.47237 7.92618C1.47158 11.4828 4.36906 14.3814 7.9259 14.3821C11.4814 14.3827 14.381 11.4836 14.3818 7.92776C14.3826 4.37172 11.4841 1.47298 7.92729 1.47278C4.36965 1.47278 1.47336 4.36817 1.47237 7.92618Z" fill="#818181"/>
</svg>
